PathFileType	4	(X/Y/Z)	D:\Share\Shared_Data\Ergonomics\Sit To Stand Pertubation\S2\S2 Cal 01.trc
DataRate	CameraRate	NumFrames	NumMarkers	Units	OrigDataRate	OrigDataStartFrame	OrigNumFrames	
100	100	7	21	mm	100	104	206
Frame#	Time	R_ASIS			R_Pelvis			V_Sacral			L_Pelvis			L_ASIS			Clavical			R_Acromium			L_Acromium			Sternum			Torso			R_Thigh_Med			R_Thigh_Lat			R_Thigh			R_Shank_Med			R_Shank_Lat			R_Shank			R_Heel			R_Toe			RAJC			RHJC			RKJC			
		X1	Y1	Z1	X2	Y2	Z2	X3	Y3	Z3	X4	Y4	Z4	X5	Y5	Z5	X6	Y6	Z6	X7	Y7	Z7	X8	Y8	Z8	X9	Y9	Z9	X10	Y10	Z10	X11	Y11	Z11	X12	Y12	Z12	X13	Y13	Z13	X14	Y14	Z14	X15	Y15	Z15	X16	Y16	Z16	X17	Y17	Z17	X18	Y18	Z18	X19	Y19	Z19	X20	Y20	Z20	X21	Y21	Z21	

104	1.03	424.75891	1026.2971	127.56757	350.89117	1029.6047	168.20868	217.2674	1040.301	-2.7546966	331.08865	1041.0862	-174.08675	418.64679	1038.152	-137.95734	406.43253	1449.475	-11.933278	302.90652	1475.8381	194.2534	298.091	1480.8665	-200.1288	450.77011	1289.14	-14.841088	415.41302	1409.157	-125.91411	340.23499	494.63159	62.918819	334.75345	516.6123	152.19269	429.58002	674.20465	127.73399	304.70752	106.35989	69.136261	283.36877	100.67838	160.42865	302.29147	372.00446	183.37396	204.54242	60.47501	111.47601	441.86307	64.588989	108.80637	294.038145	103.519135	114.7824555	361.3216375	939.783473	87.22132864	337.49422	505.621945	107.5557545
105	1.04	424.7562	1026.2844	127.56182	350.90054	1029.6002	168.21982	217.24881	1040.3046	-2.7393835	331.06503	1041.1028	-174.06844	418.67224	1038.1837	-137.95889	406.47247	1449.4833	-11.947406	302.98016	1475.8475	194.24591	298.11563	1480.8942	-200.12094	450.82144	1289.1427	-14.873503	415.4422	1409.1757	-125.93858	340.23602	494.62344	62.916435	334.7468	516.60321	152.18086	429.57263	674.20276	127.70542	304.72864	106.36937	69.123192	283.36755	100.67515	160.42648	302.29315	372.00748	183.37502	204.54544	60.478035	111.46758	441.86417	64.587814	108.7945	294.048095	103.52226	114.774836	361.3182014	939.7771437	87.1949421	337.49141	505.613325	107.5486475
106	1.05	424.7327	1026.2844	127.54361	350.90836	1029.5909	168.21301	217.2249	1040.3125	-2.7058845	330.95319	1041.1062	-174.07281	418.66321	1038.2213	-137.96521	406.52988	1449.5046	-11.96406	303.06647	1475.8461	194.20566	298.11087	1480.9027	-200.15601	450.86603	1289.1423	-14.914986	415.47702	1409.1904	-125.97952	340.19769	494.61511	62.900864	334.74338	516.59686	152.19167	429.5686	674.20068	127.69383	304.72183	106.36556	69.134094	283.36429	100.67693	160.43019	302.27588	371.99759	183.39395	204.54312	60.47073	111.47229	441.85828	64.604271	108.7987	294.04306	103.521245	114.782142	361.2987855	939.7835168	87.16270172	337.470535	505.605985	107.546267
107	1.06	424.75137	1026.2856	127.52341	350.93457	1029.583	168.22525	217.16898	1040.3088	-2.7046163	330.88577	1041.1183	-174.06705	418.65439	1038.2872	-137.95273	406.57214	1449.522	-11.979246	303.14255	1475.8625	194.19321	298.13123	1480.9496	-200.1443	450.84937	1289.1508	-14.937443	415.50049	1409.1996	-126.02345	340.21689	494.62888	62.898293	334.74179	516.6037	152.18478	429.57169	674.17535	127.68508	304.72684	106.36326	69.129211	283.36166	100.67317	160.4259	302.2829	372.00418	183.3933	204.54166	60.474972	111.47769	441.86072	64.606422	108.79241	294.04425	103.518215	114.7775555	361.316552	939.7916568	87.13245835	337.47934	505.61629	107.5415365
108	1.07	424.76993	1026.2832	127.50274	350.95724	1029.5896	168.22275	217.15778	1040.3043	-2.6398506	330.82233	1041.1332	-174.05293	418.67133	1038.3203	-137.94958	406.61017	1449.533	-12.016377	303.20901	1475.8525	194.17795	298.13538	1480.9792	-200.15308	450.88492	1289.1425	-14.960498	415.52869	1409.2246	-126.05442	340.21832	494.63541	62.90316	334.73566	516.60431	152.19249	429.57529	674.18109	127.67543	304.71732	106.37114	69.1203	283.36685	100.66769	160.43251	302.29541	372.00714	183.39609	204.53464	60.474297	111.47177	441.86752	64.588844	108.80225	294.042085	103.519415	114.776405	361.3357018	939.7962118	87.10421665	337.47699	505.61986	107.547825
109	1.08	424.73904	1026.2743	127.46613	350.97693	1029.5913	168.22426	217.13113	1040.3069	-2.6201735	330.77509	1041.1453	-174.05165	418.54987	1038.2975	-137.97484	406.65012	1449.5381	-12.035367	303.30231	1475.877	194.14107	298.15518	1481.0134	-200.16321	450.89005	1289.1327	-15.004008	415.55103	1409.2534	-126.09473	340.19916	494.63248	62.903709	334.74542	516.60748	152.19211	429.56985	674.19464	127.64193	304.72067	106.36658	69.128197	283.36499	100.67387	160.43231	302.29846	372.00031	183.3894	204.54958	60.484627	111.47152	441.85226	64.583725	108.79507	294.04283	103.520225	114.7802535	361.2943417	939.793608	87.0956707	337.47229	505.61998	107.5479095
110	1.09	424.77997	1026.2727	127.44161	351.0321	1029.5969	168.21887	217.11636	1040.3324	-2.5808392	330.67603	1041.1499	-174.04253	418.5242	1038.3185	-137.98523	406.70773	1449.5364	-12.076236	303.38477	1475.9196	194.18767	298.1756	1481.0331	-200.17554	450.91351	1289.1443	-15.071323	415.58704	1409.2703	-126.13332	340.18839	494.62796	62.901421	334.74799	516.60321	152.19473	429.57599	674.1795	127.63874	304.71231	106.37029	69.128761	283.37476	100.67796	160.42804	302.29871	372.00223	183.40279	204.54634	60.48616	111.49973	441.86493	64.603012	108.78542	294.043535	103.524125	114.7784005	361.3130076	939.8037713	87.08222402	337.46819	505.615585	107.5480755
